# xmcd
#
# Track frame offsets: 
#        150
#        11822
#        22559
#        33884
#        46134
#        58023
#        74165
#        84305
#        93600
#        103488
#        114006
#        125067
#        138972
#        151646
#        162295
#        177654
#        188509
#        200347
#        214566
#        227531
#        240264
#        247323
#        258271
#        266841
#        279060
#        289159
#        302030
#        309573
#        320697
#        333866
#        342447
#        353664
#
# Disc length: 4862 seconds
#
# Revision: 0
# Processed by: cddbd v1.5.2PL0 Copyright (c) Steve Scherf et al.
# Submitted via: ExactAudioCopy v0.99pb4
#
DISCID=c212fc20
DTITLE=Red Simpson - Hello, I'm Red Simpson - Disc 4
DYEAR=2012
DGENRE=Country
TTITLE0=Bill Woods From Bakersfield
TTITLE1=Bull-Shippers
TTITLE2=I'm A Pretty Good Man
TTITLE3=Blackboard Of My Heart
TTITLE4=Honky Tonk Ladies Loverman
TTITLE5=Squirmin'
TTITLE6=Yip Yip
TTITLE7=If The World Ran Out Of Diesel
TTITLE8=Gordon's Grocery Store
TTITLE9=Truck Drivin' Man And Wife
TTITLE10=Your Truck Drivin' Man's Comin' Home
TTITLE11=Streakin' The Opryland Park
TTITLE12=Love Has Never Done A Lot For Me
TTITLE13=Bull-Shippers
TTITLE14=Message From Home
TTITLE15=Inflation
TTITLE16=It Ain't Even Halloween
TTITLE17=Truck Driver's Heaven
TTITLE18=The Flying Saucer Man And The Truck Driver
TTITLE19=I Miss You A Little
TTITLE20=Longest Run
TTITLE21=Benny And Me
TTITLE22=Sam's Place
TTITLE23=Take Me Into Your World
TTITLE24=The World Keeps Turning Around
TTITLE25=We're Back To Strangers Again
TTITLE26=Gonna Have Love
TTITLE27=Ain't It Something
TTITLE28=Close All The Honky Tonks
TTITLE29=We Split The Blanket
TTITLE30=I Had A Girl Like Her One Time
TTITLE31=Kansas City Romeo
EXTD=
EXTT0=
EXTT1=
EXTT2=
EXTT3=
EXTT4=
EXTT5=
EXTT6=
EXTT7=
EXTT8=
EXTT9=
EXTT10=
EXTT11=
EXTT12=
EXTT13=
EXTT14=
EXTT15=
EXTT16=
EXTT17=
EXTT18=
EXTT19=
EXTT20=
EXTT21=
EXTT22=
EXTT23=
EXTT24=
EXTT25=
EXTT26=
EXTT27=
EXTT28=
EXTT29=
EXTT30=
EXTT31=
PLAYORDER=
